<svg version="1" xmlns="http://www.w3.org/2000/svg" width="933.333" height="933.333" viewBox="0 0 700.000000 700.000000"><path d="M418 9.4c-.3.2-3.6.7-7.5 1-16.4 1.5-39.7 6.7-56.5 12.4-53.6 18.5-98.1 52.7-128.6 98.8-10.9 16.5-21.3 37.1-26.9 53.4-.1.3-.5 1.2-.8 2-2.5 5.9-7.8 25.6-9.2 34-.3 1.9-.8 4.8-1.2 6.5-.8 3.9-1.2 7.3-2.8 23-.7 6.3-.7 32.4 0 38.5 1.1 10.5 1.6 14.5 2 16 .2.8.6 3.5.9 6 3.2 24.7 15 58.7 28.7 82.7 6.5 11.2 18 28 23.4 33.9.5.7 4.4 4.9 8.5 9.6 24.1 26.9 60.5 51.2 95 63.6 10.5 3.7 29.2 9.2 36.5 10.6 1.7.4 4.1.9 5.5 1.1 1.4.3 4.3.8 6.4 1 2.1.3 4.2.7 4.5.9.3.2 4.4.7 9.1 1.1 4.7.3 9.3.8 10.2 1.1 2.8.8 43.8.7 50.8-.1 3.6-.4 7.2-.8 8-.7.8 0 5.6-.6 10.5-1.3 5-.8 10.6-1.6 12.5-1.9 4.1-.6 20.1-4.3 24.5-5.7 28.6-8.8 48.4-17.8 69.5-31.7 7.7-5 19.7-13.7 21-15.2.3-.3 2.1-1.8 4-3.4 21.2-17.2 42.5-44.3 56.8-72.3 8.8-17.3 19.5-47.6 21.8-62.3.3-1.9.8-3.8 1-4.1.2-.3.6-3.3 1-6.5.3-3.2.7-6.1.9-6.4 2.5-4 2.5-68 0-72-.2-.4-.6-2.4-.9-4.6-1.8-12.9-6.4-30.3-12.1-45.6-16.8-44.9-45-82.8-83-111.8-33.4-25.4-79.3-44.4-119.5-49.5-3-.4-6.6-.9-8-1.2-3.5-.6-55.5-1.5-56-.9zm43 69c9.4 1.1 28.2 5.3 37.9 8.7 51.6 17.8 91.5 56.7 109.8 106.9 3.8 10.4 8.1 26.2 8.8 32.5.3 2.2.8 5.2 1.1 6.6 2 10 2 37.4 0 49.4-.3 1.6-.7 4.8-1.1 7-1.7 12.1-7.8 30.8-14.7 45.1-22.6 47.1-65.9 83.9-116 98.5-5.3 1.5-11.4 3-13.5 3.4-2.1.3-5 .7-6.3 1-6.5 1.3-11.1 1.6-24.4 1.9-7.9.2-16.3 0-18.7-.4-2.4-.4-6-1-7.9-1.3-1.9-.3-4.4-.8-5.5-1-1.1-.3-3.3-.8-5-1.2-11.8-2.7-20.5-6.1-36.5-13.8-32.6-15.8-61.2-41.5-79.4-71.6-12.7-20.8-19-37.4-24.1-63.6-.6-3-1.7-21.1-1.8-29.5-.2-12.4 2-29.1 5.8-44 13.2-52.7 46.7-94 95-117.5 14-6.8 34.9-13.8 45-15.1 1.1-.1 5.2-.7 9-1.3 11.8-1.8 29.5-2.1 42.5-.7z"/><path d="M281.2 202.8c-2.7 5.1-7.4 24.8-8.7 36.2-1 8-1.4 27.6-.6 28.7.3.5 6 1.7 12.6 2.6 73.3 10.2 132.2 63.1 149.4 134.2 1.6 6.6 3.2 14.4 3.5 17.4.4 2.9.9 5.7 1.1 6.2.5.8 14.1.4 20-.5 1.7-.3 5.3-.8 8-1.2 10.6-1.3 28.2-6.9 42.8-13.7l6.8-3.1-.6-4.1c-1.3-8.2-5.5-24.7-9.1-35.1-10.7-31.7-26.7-58.9-49.9-84.9-9.6-10.8-9.1-10.3-19-19.1-35.1-31.2-80.5-53.3-126.3-61.4-6.8-1.2-8.7-1.5-17.2-2.5-3-.3-6.9-.8-8.7-1.1-2.4-.3-3.5.1-4.1 1.4zM168 212c-2.5.8-4.9 1.8-5.5 2.1-.5.4-2.8 1.2-5 1.9-10.2 3.3-34.7 16.3-48.3 25.7-47.5 32.8-82 79.9-98.6 134.7C3.4 400 .6 419.5.6 446c-.1 21.9.6 32.9 2.8 45.5.3 1.6.8 4.6 1.1 6.5 1.3 7.5 5.9 25 9.3 35C35.7 598.2 82.7 649.3 147 677.9c4.1 1.8 8 3.4 8.5 3.5.6.1 1.5.4 2 .8 1.5.9 22.1 7.4 29 9.2 13.7 3.4 27.9 5.9 44.5 7.6 8.3.8 53.4.5 59-.5 5.4-.9 16.7-2.6 19.2-3 6.9-.8 27.4-6.1 38.5-9.9 37.2-12.7 66.5-30.5 94.5-57.3 23.9-22.8 45-55.5 56.1-86.8 3.4-9.5 8.7-27.8 8.7-30.1 0-.7-2.7-.5-8.2.7-4.6 1-10.5 2.1-13.3 2.4-2.7.3-6.1.8-7.5 1-10.3 1.8-24 2.7-40.9 2.7h-16l-2.1 5.3c-8.7 21.4-33.8 52.7-55.5 69.2-22.9 17.3-52.9 31.1-75.5 34.7-1.9.3-4.6.8-6 1-10.1 1.8-33.7 2.4-42.5 1.1-14.6-2.1-31.4-6.2-39-9.4-1.1-.5-4.5-1.9-7.5-3.1-3-1.2-8.9-4-13-6.3-35.6-19.2-63.8-47.6-81.3-82.2-9.9-19.4-14.4-34.6-18.2-61.5-1.2-8.2-.6-36.3.9-43.9.3-1.4.8-4.6 1.1-7.1.3-2.5.8-5.3 1.1-6.2.3-.9.7-2.5.9-3.5 1.9-7.9 3.5-13.5 4.9-17.3 1-2.5 2.2-6.1 2.8-8 1.4-4.7 10.5-23 15.5-31.2 14.4-23.6 34.6-43.2 60.6-59.2 2.6-1.6 2.7-2 2.1-6.4-1-7.6-1.2-41-.3-49.2.5-4.1 1.4-11.2 2.1-15.8.6-4.5.9-8.3.7-8.5-.2-.2-2.4.4-4.9 1.3z"/></svg>