<svg id="Layer_1" data-name="Layer 1" xmlns="http://www.w3.org/2000/svg" xmlns:xlink="http://www.w3.org/1999/xlink" viewBox="0 0 200 120"><defs><style>.cls-1{fill:none;}.cls-2{fill:#4e5360;}.cls-3{fill:#fff;}.cls-4{fill:#212e3a;}.cls-5{fill:#364857;opacity:0.14;isolation:isolate;}.cls-6{fill:url(#linear-gradient);}.cls-7{fill:url(#linear-gradient-2);}.cls-8{fill:#3192a8;}.cls-9{fill:url(#linear-gradient-3);}.cls-10{fill:url(#linear-gradient-4);}.cls-11{fill:url(#linear-gradient-5);}.cls-12{fill:url(#linear-gradient-6);}.cls-13{fill:url(#linear-gradient-7);}.cls-14{fill:url(#linear-gradient-8);}.cls-15{fill:url(#linear-gradient-9);}.cls-16{fill:#2d335b;}.cls-17{fill:url(#linear-gradient-10);}.cls-18{fill:url(#linear-gradient-11);}</style><linearGradient id="linear-gradient" x1="32.99" y1="76.46" x2="116" y2="76.46" gradientTransform="matrix(1, 0, 0, -1, 0, 122)" gradientUnits="userSpaceOnUse"><stop offset="0" stop-color="#7cd2cb"/><stop offset="0.08" stop-color="#6accc8"/><stop offset="0.22" stop-color="#4fc3c4"/><stop offset="0.36" stop-color="#3cbcc0"/><stop offset="0.51" stop-color="#31b8bf"/><stop offset="0.67" stop-color="#2db7be"/><stop offset="0.98" stop-color="#2da1be"/></linearGradient><linearGradient id="linear-gradient-2" x1="-62.57" y1="37.51" x2="117.76" y2="37.51" xlink:href="#linear-gradient"/><linearGradient id="linear-gradient-3" x1="-796.52" y1="30.25" x2="191.65" y2="30.25" xlink:href="#linear-gradient"/><linearGradient id="linear-gradient-4" x1="-796.52" y1="79.34" x2="191.65" y2="79.34" xlink:href="#linear-gradient"/><linearGradient id="linear-gradient-5" x1="-796.51" y1="36.64" x2="191.66" y2="36.64" xlink:href="#linear-gradient"/><linearGradient id="linear-gradient-6" x1="71.17" y1="18.6" x2="113.17" y2="71.99" gradientTransform="matrix(1, 0, 0, -1, 0, 122)" gradientUnits="userSpaceOnUse"><stop offset="0" stop-color="#7cd2cb"/><stop offset="0.22" stop-color="#4fc3c4"/><stop offset="0.98" stop-color="#2da3ac"/></linearGradient><linearGradient id="linear-gradient-7" x1="60.89" y1="26.69" x2="102.89" y2="80.08" gradientTransform="matrix(1, 0, 0, -1, 0, 122)" gradientUnits="userSpaceOnUse"><stop offset="0" stop-color="#5ac7b8"/><stop offset="0.98" stop-color="#2da1be"/></linearGradient><linearGradient id="linear-gradient-8" x1="-796.52" y1="30.16" x2="191.65" y2="30.16" xlink:href="#linear-gradient"/><linearGradient id="linear-gradient-9" x1="93.89" y1="37.91" x2="110.97" y2="86.07" gradientTransform="matrix(1, 0, 0, -1, 0, 122)" gradientUnits="userSpaceOnUse"><stop offset="0" stop-color="#f97a66"/><stop offset="0.24" stop-color="#f75940"/><stop offset="0.98" stop-color="#f74b40"/></linearGradient><linearGradient id="linear-gradient-10" x1="81.57" y1="42.29" x2="98.65" y2="90.44" xlink:href="#linear-gradient-9"/><linearGradient id="linear-gradient-11" x1="99.81" y1="29.51" x2="124.08" y2="97.95" gradientTransform="matrix(1, 0, 0, -1, 0, 122)" gradientUnits="userSpaceOnUse"><stop offset="0" stop-color="#6683f0"/><stop offset="0.24" stop-color="#5a5cf0"/><stop offset="0.98" stop-color="#6638f0"/></linearGradient></defs><title>toolzpro</title><path class="cls-1" d="M123,81.52a29,29,0,0,0,8.76-6.06,27.61,27.61,0,0,0,5.94-8.76,25.54,25.54,0,0,0,2.22-10.62,27.3,27.3,0,0,0-2.22-11A27.18,27.18,0,0,0,123,30.39a25.38,25.38,0,0,0-7.74-2V83.62A24,24,0,0,0,123,81.52Z"/><path class="cls-1" d="M93.31,36.27a26.59,26.59,0,0,0-5.94,8.82,27.3,27.3,0,0,0-2.22,11,25.74,25.74,0,0,0,2.22,10.62A28.84,28.84,0,0,0,102,81.52v-51A27.59,27.59,0,0,0,93.31,36.27Z"/><path class="cls-2" d="M102,2.19V43.53a35.55,35.55,0,0,1,3.54,3.12,39.6,39.6,0,0,1,8.58,12.78,28.09,28.09,0,0,1,1.08,2.88V2.19Z"/><path class="cls-3" d="M104.29,49.59a40,40,0,0,1,10.86,20.1V62.32a28.09,28.09,0,0,0-1.08-2.88,39.6,39.6,0,0,0-8.58-12.78A34.67,34.67,0,0,0,102,43.53v4C102.73,48.15,103.57,48.87,104.29,49.59Z"/><path class="cls-4" d="M104.29,49.59a40,40,0,0,1,10.86,20.1V62.32a28.09,28.09,0,0,0-1.08-2.88,39.6,39.6,0,0,0-8.58-12.78A34.67,34.67,0,0,0,102,43.53v4C102.73,48.15,103.57,48.87,104.29,49.59Z"/><path class="cls-3" d="M102,81.52a.22.22,0,0,0,.18.06,25.77,25.77,0,0,0,.9-6.84,27,27,0,0,0-1.14-8L102,81.52Z"/><path class="cls-5" d="M100.87,63.76A31,31,0,0,1,102,66.82V47.43a43,43,0,0,0-10-6.24,27.3,27.3,0,0,0-2.88,5.4A31.6,31.6,0,0,0,88,50a27.31,27.31,0,0,1,7,5A28.53,28.53,0,0,1,100.87,63.76Z"/><path class="cls-5" d="M112.51,83.8a24.18,24.18,0,0,1-10.32-2.22c-.18.66-.42,1.38-.66,2,.72.42,1.5.84,2.28,1.26h.06a23.94,23.94,0,0,0,10.62,2.4h.42A41.39,41.39,0,0,0,116,77.8a44,44,0,0,0-.78-8V83.68A20.34,20.34,0,0,1,112.51,83.8Z"/><path class="cls-3" d="M104.29,49.59c-.78-.78-1.56-1.44-2.34-2.16V66.82a29.15,29.15,0,0,1,1.14,8,26.1,26.1,0,0,1-.9,6.84,25.11,25.11,0,0,0,10.32,2.22c.9,0,1.8-.06,2.7-.12V69.82a39.76,39.76,0,0,0-2.28-7.32A41.29,41.29,0,0,0,104.29,49.59Z"/><path class="cls-5" d="M104.29,49.59c-.78-.78-1.56-1.44-2.34-2.16V66.82a29.15,29.15,0,0,1,1.14,8,26.1,26.1,0,0,1-.9,6.84,25.11,25.11,0,0,0,10.32,2.22c.9,0,1.8-.06,2.7-.12V69.82a39.76,39.76,0,0,0-2.28-7.32A41.29,41.29,0,0,0,104.29,49.59Z"/><path class="cls-3" d="M104.05,99.16l-1.38-.36a22.08,22.08,0,0,0,2.46,6.78,38.9,38.9,0,0,0,4.44-5.52A50.49,50.49,0,0,1,104.05,99.16Z"/><path class="cls-2" d="M32.16,101.68h0q-3.87,0-5.22-1.26c-.9-.84-1.32-2.28-1.32-4.32v-47h9.3a48.29,48.29,0,0,1,4.62-5.34,49.78,49.78,0,0,1,7.8-6.3H25.68V18.81H12.42V97.54c0,5.88,1.26,10.08,3.78,12.66S23.34,114,30.12,114c1.56,0,4.08-.06,5.46-.06,1.14,0,5-.12,7-.24-1.2-1-2.28-2-3.36-3A46.93,46.93,0,0,1,32.16,101.68Z"/><polygon class="cls-2" points="12.36 36.27 12.3 36.27 12.24 36.27 12.24 36.27 12.18 36.27 12.12 36.27 12.06 36.27 12 36.27 11.94 36.27 11.94 36.27 11.88 36.27 11.82 36.27 11.76 36.27 11.7 36.27 11.64 36.27 11.64 36.27 11.58 36.27 11.52 36.27 11.46 36.27 11.4 36.27 11.34 36.27 11.28 36.27 11.28 36.27 11.22 36.27 11.16 36.27 11.1 36.27 11.04 36.27 10.98 36.27 10.98 36.27 10.92 36.27 10.86 36.27 10.8 36.27 10.74 36.27 10.68 36.27 10.68 36.27 10.62 36.27 10.56 36.27 10.5 36.27 10.44 36.27 10.38 36.27 10.38 36.27 10.32 36.27 10.26 36.27 10.2 36.27 10.14 36.27 10.08 36.27 10.08 36.27 10.02 36.27 9.96 36.27 9.9 36.27 9.84 36.27 9.78 36.27 9.78 36.27 9.72 36.27 9.66 36.27 9.6 36.27 9.54 36.27 9.48 36.27 9.42 36.27 9.42 36.27 9.36 36.27 9.3 36.27 9.24 36.27 9.18 36.27 9.12 36.27 9.12 36.27 9.06 36.27 9 36.27 8.94 36.27 8.88 36.27 8.82 36.27 8.82 36.27 8.76 36.27 8.7 36.27 8.64 36.27 8.58 36.27 8.52 36.27 8.52 36.27 8.46 36.27 8.4 36.27 8.34 36.27 8.28 36.27 8.22 36.27 8.22 36.27 8.16 36.27 8.1 36.27 8.04 36.27 7.98 36.27 7.92 36.27 7.86 36.27 7.86 36.27 7.8 36.27 7.74 36.27 7.68 36.27 7.62 36.27 7.56 36.27 7.56 36.27 7.5 36.27 7.44 36.27 7.38 36.27 7.32 36.27 7.25 36.27 7.25 36.27 7.2 36.27 7.13 36.27 7.08 36.27 7.01 36.27 6.96 36.27 6.96 36.27 6.89 36.27 6.83 36.27 6.78 36.27 6.71 36.27 6.66 36.27 6.66 36.27 6.59 36.27 6.54 36.27 6.47 36.27 6.42 36.27 6.36 36.27 6.29 36.27 6.29 36.27 6.24 36.27 6.17 36.27 6.12 36.27 6.05 36.27 6 36.27 6 36.27 5.93 36.27 5.88 36.27 5.82 36.27 5.75 36.27 5.7 36.27 5.7 36.27 5.63 36.27 5.58 36.27 5.51 36.27 5.46 36.27 5.39 36.27 5.39 36.27 5.33 36.27 5.28 36.27 5.21 36.27 5.16 36.27 5.09 36.27 5.09 36.27 5.04 36.27 4.97 36.27 4.92 36.27 4.86 36.27 4.79 36.27 4.79 36.27 4.74 36.27 4.67 36.27 4.62 36.27 4.55 36.27 4.5 36.27 4.43 36.27 4.43 36.27 4.38 36.27 4.32 36.27 4.25 36.27 4.2 36.27 4.13 36.27 4.13 36.27 4.08 36.27 4.01 36.27 3.96 36.27 3.9 36.27 3.83 36.27 3.83 36.27 3.77 36.27 3.71 36.27 3.65 36.27 3.6 36.27 3.54 36.27 3.54 36.27 3.48 36.27 3.42 36.27 3.35 36.27 3.29 36.27 3.23 36.27 3.23 36.27 3.17 36.27 3.12 36.27 3.06 36.27 3 36.27 2.94 36.27 2.88 36.27 2.88 36.27 2.81 36.27 2.75 36.27 2.69 36.27 2.63 36.27 2.58 36.27 2.58 36.27 2.52 36.27 2.46 36.27 2.4 36.27 2.33 36.27 2.27 36.27 2.27 36.27 2.21 36.27 2.15 36.27 1.92 36.27 1.92 50.08 2.15 50.08 2.21 50.08 2.27 50.08 2.27 50.08 2.33 50.08 2.4 50.08 2.46 50.08 2.52 50.08 2.58 50.08 2.58 50.08 2.63 50.08 2.69 50.08 2.75 50.08 2.81 50.08 2.88 50.08 2.88 50.08 2.94 50.08 3 50.08 3.06 50.08 3.12 50.08 3.17 50.08 3.23 50.08 3.23 50.08 3.29 50.08 3.35 50.08 3.42 50.08 3.48 50.08 3.54 50.08 3.54 50.08 3.6 50.08 3.65 50.08 3.71 50.08 3.77 50.08 3.83 50.08 3.83 50.08 3.9 50.08 3.96 50.08 4.01 50.08 4.08 50.08 4.13 50.08 4.13 50.08 4.2 50.08 4.25 50.08 4.32 50.08 4.38 50.08 4.43 50.08 4.43 50.08 4.5 50.08 4.55 50.08 4.62 50.08 4.67 50.08 4.74 50.08 4.79 50.08 4.79 50.08 4.86 50.08 4.92 50.08 4.97 50.08 5.04 50.08 5.09 50.08 5.09 50.08 5.16 50.08 5.21 50.08 5.28 50.08 5.33 50.08 5.39 50.08 5.39 50.08 5.46 50.08 5.51 50.08 5.58 50.08 5.63 50.08 5.7 50.08 5.7 50.08 5.75 50.08 5.82 50.08 5.88 50.08 5.93 50.08 6 50.08 6 50.08 6.05 50.08 6.12 50.08 6.17 50.08 6.24 50.08 6.29 50.08 6.29 50.08 6.36 50.08 6.42 50.08 6.47 50.08 6.54 50.08 6.59 50.08 6.66 50.08 6.66 50.08 6.71 50.08 6.78 50.08 6.83 50.08 6.89 50.08 6.96 50.08 6.96 50.08 7.01 50.08 7.08 50.08 7.13 50.08 7.2 50.08 7.25 50.08 7.25 50.08 7.32 50.08 7.38 50.08 7.44 50.08 7.5 50.08 7.56 50.08 7.56 50.08 7.62 50.08 7.68 50.08 7.74 50.08 7.8 50.08 7.86 50.08 7.86 50.08 7.92 50.08 7.98 50.08 8.04 50.08 8.1 50.08 8.16 50.08 8.22 50.08 8.22 50.08 8.28 50.08 8.34 50.08 8.4 50.08 8.46 50.08 8.52 50.08 8.52 50.08 8.58 50.08 8.64 50.08 8.7 50.08 8.76 50.08 8.82 50.08 8.82 50.08 8.88 50.08 8.94 50.08 9 50.08 9.06 50.08 9.12 50.08 9.12 50.08 9.18 50.08 9.24 50.08 9.3 50.08 9.36 50.08 9.42 50.08 9.42 50.08 9.48 50.08 9.54 50.08 9.6 50.08 9.66 50.08 9.72 50.08 9.78 50.08 9.78 50.08 9.84 50.08 9.9 50.08 9.96 50.08 10.02 50.08 10.08 50.08 10.08 50.08 10.14 50.08 10.2 50.08 10.26 50.08 10.32 50.08 10.38 50.08 10.38 50.08 10.44 50.08 10.5 50.08 10.56 50.08 10.62 50.08 10.68 50.08 10.68 50.08 10.74 50.08 10.8 50.08 10.86 50.08 10.92 50.08 10.98 50.08 10.98 50.08 11.04 50.08 11.1 50.08 11.16 50.08 11.22 50.08 11.28 50.08 11.28 50.08 11.34 50.08 11.4 50.08 11.46 50.08 11.52 50.08 11.58 50.08 11.64 50.08 11.64 50.08 11.7 50.08 11.76 50.08 11.82 50.08 11.88 50.08 11.94 50.08 11.94 50.08 12 50.08 12.06 50.08 12.12 50.08 12.18 50.08 12.24 50.08 12.24 50.08 12.3 50.08 12.36 50.08 12.42 50.08 12.42 48.99 12.42 37.35 12.42 36.27 12.36 36.27"/><path class="cls-6" d="M73.33,50h1.2A26,26,0,0,1,85,52.17c.78.36,1.56.72,2.28,1.08a27.21,27.21,0,0,1,1.86-6.54A28.83,28.83,0,0,1,92,41.31L91.15,41a41.55,41.55,0,0,0-13.38-3.12,35.6,35.6,0,0,0-2,4.32A33.06,33.06,0,0,0,73.33,50Z"/><path class="cls-3" d="M102.67,98.8l1.38.36a40.75,40.75,0,0,0,5.52.9,41.05,41.05,0,0,0,2.22-3.9,49,49,0,0,1-9.6-1.08A23.29,23.29,0,0,0,102.67,98.8Z"/><path class="cls-2" d="M176.12,49H140.24V37.35h57.85L158.36,102.4h32.47L183.26,114H136.1Z"/><path class="cls-4" d="M151.22,37.35h-10V49h14.4a40,40,0,0,0-2.16-6.9A48.49,48.49,0,0,0,151.22,37.35Z"/><path class="cls-7" d="M115.27,84a35.37,35.37,0,0,1-8.4-.54,27.68,27.68,0,0,1-5.22-1.2,1,1,0,0,0-.06-.6,17.59,17.59,0,0,1-.3,1.74c.12.06.18.12.3.18.72.42,1.5.84,2.28,1.26h.06a23.94,23.94,0,0,0,10.62,2.4H115c.3-1.26.48-2.58.66-3.84A1.6,1.6,0,0,0,115.27,84Z"/><path class="cls-8" d="M101.59,82.36a33.28,33.28,0,0,0,5.22,1.2,39.06,39.06,0,0,0,8.4.54,2.44,2.44,0,0,1,.36-.66c.06-.48.12-.9.18-1.38a43.27,43.27,0,0,1-7.44-.36A36,36,0,0,1,101.77,80a.06.06,0,0,1-.06.06c-.06.54-.12,1.14-.18,1.68A1.34,1.34,0,0,1,101.59,82.36Z"/><path class="cls-9" d="M111.73,96.16h0a24.12,24.12,0,0,0,1.32-2.82,36.45,36.45,0,0,0,1.86-6h-.06a40.9,40.9,0,0,1-1.86,6C112.63,94.3,112.15,95.26,111.73,96.16Z"/><path class="cls-10" d="M73.87,47.55a44.71,44.71,0,0,1,1.8-5.46,47.66,47.66,0,0,1,2-4.32h-.54a39.53,39.53,0,0,0-2.7,7C74.23,45.63,74,46.59,73.87,47.55Z"/><path class="cls-11" d="M103.81,84.88a23.94,23.94,0,0,0,10.62,2.4h0a24.13,24.13,0,0,1-10.62-2.4h0a21.74,21.74,0,0,1-2.58-1.44h0a21.74,21.74,0,0,0,2.58,1.44Z"/><path class="cls-12" d="M115.21,69.76a40,40,0,0,0-10.86-20.1c-.78-.78-1.56-1.44-2.34-2.16a43,43,0,0,0-10-6.24,27.3,27.3,0,0,0-2.88,5.4A31.6,31.6,0,0,0,88,50a28.24,28.24,0,0,0-.72,3.24A27.07,27.07,0,0,1,99.73,66.82a27.3,27.3,0,0,1,2.22,11c0,.78-.06,1.5-.12,2.28a.06.06,0,0,1,.06-.06,41.64,41.64,0,0,0,6.54,1.74,43.27,43.27,0,0,0,7.44.36c.12-1.38.24-2.82.24-4.26A50,50,0,0,0,115.21,69.76Z"/><path class="cls-13" d="M104,99.16l-1.38-.36a33.76,33.76,0,0,1-5.4-1.86l-2.34-1.08c-.36.42-.78.84-1.14,1.26A30.08,30.08,0,0,1,85,103.18a25.38,25.38,0,0,1-10.44,2.28A24.84,24.84,0,0,1,64,103.18a29.46,29.46,0,0,1-8.7-6.06,27.61,27.61,0,0,1-5.94-8.76,25.54,25.54,0,0,1-2.22-10.62,27.3,27.3,0,0,1,2.22-11A27.33,27.33,0,0,1,64,52.05a27.21,27.21,0,0,1,6.54-1.86,32.32,32.32,0,0,1,1.2-7.14,33.83,33.83,0,0,1,2.1-5.52,41.35,41.35,0,0,0-29.1,12,40,40,0,0,0-11.7,28.14A40.7,40.7,0,0,0,36,93.22a37.35,37.35,0,0,0,8.4,12.72,38.74,38.74,0,0,0,13.08,8.58,44.44,44.44,0,0,0,17,3.18,44.23,44.23,0,0,0,17-3.18,39.65,39.65,0,0,0,13.08-8.58l.48-.48a35.8,35.8,0,0,0,4.44-5.52h-.06A33.07,33.07,0,0,1,104,99.16Z"/><path class="cls-2" d="M123.73,101.68a7.81,7.81,0,0,1-4.74-1.62c-.3,0-.6.06-.9.06-1.14.06-2.34.12-3.54.12h0c-1.68,0-3.3-.12-4.92-.24a35.8,35.8,0,0,1-4.44,5.52,14.77,14.77,0,0,0,2.34,3.06c3.66,3.66,8.58,5.46,14.76,5.46h5.46l7.56-12.42Z"/><path class="cls-5" d="M99.67,88.42a28.88,28.88,0,0,0,1.62-4.86h-.06a30.45,30.45,0,0,1-1.56,4.86,28.45,28.45,0,0,1-4.86,7.44h.06A29.28,29.28,0,0,0,99.67,88.42Z"/><path class="cls-4" d="M114.49,100.3c1.2,0,2.4-.06,3.54-.12.3,0,.6-.06.9-.06-.36-.3-.78-.6-1.14-1A7.68,7.68,0,0,1,116,96.1c-1.14.06-2.34.12-3.54.12h-.72a30.42,30.42,0,0,1-2.22,3.84C111.19,100.18,112.81,100.3,114.49,100.3Z"/><path class="cls-14" d="M102.61,98.8l1.38.36a40.75,40.75,0,0,0,5.52.9h.06c.78-1.26,1.56-2.52,2.22-3.84h-.06c.48-.9.9-1.86,1.32-2.82a36.45,36.45,0,0,0,1.86-6h-.36A23.76,23.76,0,0,1,103.93,85h-.06a25,25,0,0,1-2.52-1.38,23.13,23.13,0,0,1-1.62,4.86,26.83,26.83,0,0,1-4.8,7.44h0c.78.36,1.56.78,2.34,1.08A37.21,37.21,0,0,0,102.61,98.8Z"/><path class="cls-8" d="M70.51,50.25c.9-.12,1.86-.24,2.82-.3.18-.84.36-1.68.54-2.46.18-1,.36-1.86.6-2.82a39.53,39.53,0,0,1,2.7-7c-.9-.06-1.8-.12-2.7-.12h-.66a33.34,33.34,0,0,0-3.3,12.72Z"/><path class="cls-8" d="M85.39,52.29c.6.3,1.26.54,1.86.9a27.21,27.21,0,0,1,1.86-6.54A28.83,28.83,0,0,1,92,41.25l-.84-.36c-.42-.18-.78-.3-1.2-.48a29.88,29.88,0,0,0-2.58,4.74A24.81,24.81,0,0,0,85.39,52.29Z"/><path class="cls-5" d="M75.67,42.09A37.42,37.42,0,0,0,73.33,50h1.2A26,26,0,0,1,85,52.17a2.92,2.92,0,0,1,.42.18,24.67,24.67,0,0,1,2-7.2,25.74,25.74,0,0,1,2.58-4.74,42.81,42.81,0,0,0-12.18-2.64A35.93,35.93,0,0,0,75.67,42.09Z"/><path class="cls-1" d="M101.59,30.63c-.06,0-.06.06-.12.06s.12,0,.12-.06Z"/><path class="cls-15" d="M115.21,28.47l1.2.18,1.14-12.36c-.78-.06-1.56-.18-2.4-.18V28.47Z"/><path class="cls-16" d="M115.21,28.47l1.2.18,1.14-12.36c-.78-.06-1.56-.18-2.4-.18V28.47Z"/><path class="cls-17" d="M102,30.51V17.19l-1.26.36,1,13.14A.51.51,0,0,1,102,30.51Z"/><path class="cls-16" d="M102,30.51V17.19l-1.26.36,1,13.14A.51.51,0,0,1,102,30.51Z"/><path class="cls-18" d="M150.92,40.77A39.6,39.6,0,0,0,142.34,28a41.27,41.27,0,0,0-13.2-8.76,39.13,39.13,0,0,0-11.58-2.94l-1.14,12.36A23.21,23.21,0,0,1,123,30.51a28.3,28.3,0,0,1,8.76,5.82,26.59,26.59,0,0,1,5.94,8.82,27.3,27.3,0,0,1,2.22,11,25.74,25.74,0,0,1-2.22,10.62,29.73,29.73,0,0,1-5.94,8.76A30.08,30.08,0,0,1,123,81.64a25.74,25.74,0,0,1-7.74,2.16,20.34,20.34,0,0,1-2.7.12A24.84,24.84,0,0,1,102,81.64H102a29.33,29.33,0,0,1-8.64-6,27.61,27.61,0,0,1-5.94-8.76,25.54,25.54,0,0,1-2.22-10.62,26.94,26.94,0,0,1,.24-3.84,24.67,24.67,0,0,1,2-7.2,25.74,25.74,0,0,1,2.58-4.74,27.63,27.63,0,0,1,3.36-4.08,28.85,28.85,0,0,1,7-5,12,12,0,0,1,1.26-.6c.06,0,.06-.06.12-.06l-1-13.14a42.15,42.15,0,0,0-4.86,1.68,41.39,41.39,0,0,0-13.08,8.76A40,40,0,0,0,71,56.2,40.7,40.7,0,0,0,74,71.74a37.35,37.35,0,0,0,8.4,12.72A38.74,38.74,0,0,0,95.47,93a39.87,39.87,0,0,0,6.72,2.1,47.91,47.91,0,0,0,10.38,1.08c1.2,0,2.34-.06,3.54-.12A41.14,41.14,0,0,0,129.67,93a39.65,39.65,0,0,0,13.08-8.58,38.24,38.24,0,0,0,8.4-12.72A40.7,40.7,0,0,0,154.1,56.2,41.66,41.66,0,0,0,150.92,40.77Z"/></svg>